<?xml version="1.0" standalone="no"?>
<!DOCTYPE svg PUBLIC "-//W3C//DTD SVG 1.1//EN" "http://www.w3.org/Graphics/SVG/1.1/DTD/svg11.dtd" >
<svg xmlns="http://www.w3.org/2000/svg">
<metadata>Generated by IcoMoon</metadata>
<defs>
<font id="icomoon" horiz-adv-x="1024">
<font-face units-per-em="1024" ascent="960" descent="-64" />
<missing-glyph horiz-adv-x="1024" />
<glyph unicode="&#x20;" horiz-adv-x="512" d="" />
<glyph unicode="&#xe900;" glyph-name="check" d="M746.496 960h-469.505c-73.51-0.136-143.962-29.432-195.894-81.459s-81.097-122.535-81.097-196.045v-469.504c0.135-73.421 29.361-143.794 81.278-195.71s122.292-81.149 195.713-81.282h469.505c73.511 0 144.017 29.166 196.042 81.101 52.031 51.929 81.324 122.38 81.462 195.891v469.504c0 73.598-29.238 144.183-81.275 196.225-52.043 52.042-122.627 81.279-196.229 81.279zM783.872 542.208l-268.8-267.776c-9.391-9.397-20.522-16.872-32.769-22.016-24.931-10.24-52.892-10.24-77.822 0-12.592 5.012-23.948 12.698-33.281 22.528l-132.609 132.096c-9.641 9.641-15.056 22.718-15.056 36.352s5.415 26.711 15.056 36.352c9.641 9.641 22.718 15.058 36.353 15.058s26.712-5.417 36.353-15.058l132.607-133.12 266.753 267.776c4.59 5.36 10.24 9.713 16.589 12.786 6.355 3.073 13.27 4.8 20.323 5.072s14.083-0.916 20.655-3.49c6.572-2.574 12.535-6.478 17.522-11.468 4.994-4.99 8.897-10.957 11.469-17.527 2.578-6.57 3.765-13.602 3.494-20.653s-2-13.97-5.072-20.322c-3.072-6.352-7.427-12.001-12.788-16.591h1.024z" />
<glyph unicode="&#xe901;" glyph-name="check2" d="M746.496 960h-469.505c-73.51-0.136-143.962-29.432-195.893-81.459s-81.097-122.535-81.097-196.045v-469.504c0.135-73.421 29.361-143.799 81.278-195.716s122.291-81.137 195.713-81.276h469.505c73.509 0 144.018 29.169 196.045 81.101s81.32 122.383 81.459 195.891v469.504c0 73.599-29.235 144.183-81.276 196.225s-122.631 81.279-196.228 81.279zM783.872 542.208l-268.8-267.776c-9.392-9.394-20.522-16.872-32.769-22.015-24.931-10.242-52.892-10.242-77.822 0-12.592 5.014-23.948 12.699-33.281 22.527l-132.609 132.096c-9.641 9.641-15.056 22.717-15.056 36.352s5.415 26.71 15.056 36.352c9.641 9.641 22.719 15.058 36.353 15.058s26.712-5.417 36.353-15.058l132.607-133.12 266.753 267.776c4.59 5.36 10.239 9.713 16.591 12.786 6.354 3.073 13.273 4.8 20.324 5.072s14.080-0.916 20.648-3.49c6.576-2.574 12.537-6.478 17.525-11.468 4.996-4.99 8.894-10.957 11.469-17.527s3.767-13.602 3.496-20.653c-0.278-7.051-2.004-13.97-5.076-20.322s-7.424-12.001-12.785-16.59h1.024z" />
<glyph unicode="&#xe902;" glyph-name="Message" d="M288 729.8c-79-7.2-120.2-36.8-135.8-98-8.2-32.4-9.2-50.8-9.2-183.8s1-151.4 9.2-183.6c11.8-46.4 42.6-78 87.8-90.2 33.4-9 39.2-9.2 272-9.2 228.4 0 237.4 0.2 269 8.2 46.8 11.8 79 44.2 90.8 91 8.2 32.6 9.2 51 9.2 183.8 0 133-1 151.4-9.2 183.6-11.4 44.6-41.6 76.6-83.8 89.2-32.2 9.8-33.4 9.8-264 10.2-119.4 0.4-225.6-0.2-236-1.2zM746 672.2c51-8.6 66.8-24 75-72.6l1.2-7.6-286.4-143h-47.6l-142.2 71c-78.2 39-142.8 71.6-143.2 72.4s0.6 8.4 2.4 17c8.6 41.8 26.6 56.8 75.6 62.6 29.2 3.4 32.6 3.4 247.2 3 139.2-0.4 209.2-1.2 218-2.8zM478 394.6c8-2.2 21-3.4 34-3.4s26 1.2 34 3.4c8.4 2.2 59.8 26.6 145.2 69.2l132.4 66 1.4-33.4c2.2-49.4-1.8-191.4-6-210.4-3.6-16.2-10.6-32.2-17.6-39.6-5.4-5.8-18.8-13.8-27.8-16.6-25.4-8-34.8-8.2-236.6-9.2-127.4-0.6-207.6-0.2-229.2 1.2-72.4 4.8-93.2 17.8-103 64.8-3.8 18.6-8 167.4-5.8 211.8l1.4 31.4 132.4-66c85.4-42.6 136.8-67 145.2-69.2z" />
<glyph unicode="&#xe903;" glyph-name="edit" d="M729.6 872.2c-6.2-2-15.2-6-20-8.8-12-7.2-433.8-430-440.2-441.4-10.6-18.4-11.8-28.4-11-95.6 0.6-58 1-62 5.2-72.4 10.2-25 29.4-44.6 54-54.4 10.8-4.2 14.4-4.6 72-5.2 66.4-0.8 74.6 0.2 94.8 10 11.4 5.6 34 27.4 220.2 213.4 114.2 114 211.6 212.4 216.4 218.8 4.8 6.2 10.8 16.6 13.2 23 5.2 13.8 7.2 37.8 4 52.2-5 23.8-9.4 29.6-69.2 89.8-53 53.6-56.8 57.2-72.4 64.8-15.4 7.6-17.8 8.2-36 9-15.2 0.4-22.2-0.2-31-3.2zM818.4 756.6c35.6-35.4 52.2-53.4 53.4-57.6 3.2-12.8 0-18.2-29.2-47.4l-27.6-27.6-127 127 24.6 24.6c28.6 29 33.2 32.4 45.4 32.4h8.8l51.6-51.4zM704 639l63-63-314.2-314h-56c-61.2 0-61.6 0-67.8 12-2.4 4.8-3 15.6-3 58 0 34.2 0.8 53.8 2.2 56.6 2.2 4.2 309.8 313.4 311.8 313.4 0.6 0 29.4-28.4 64-63zM188.4 781c-7-1.6-20.6-6.6-30-11.2-14.4-6.8-20.4-11.4-34.4-25.6-19.6-19.8-29.8-37.4-36-61.4-3.8-15-4-23.2-4-279.6 0-224.2 0.6-266.4 3-278.2 7.8-36.8 37.2-74.4 71-90.6 31.6-15.2 12.4-14.4 307-14.4 294.8 0 278.6-0.6 309 14.2 13.4 6.6 20.4 12 34 25.6 18 18 25.8 30.4 34.2 54.2 4.6 12.8 4.8 14 5.4 123 0.4 74.4 0 112.4-1.4 117.2-3.2 10.4-15.6 21.2-26.8 22.8-10 1.6-23.6-3.2-30-10.6-9-10-9.2-14-9.4-122.6 0-113 0.2-111.2-12-128.8-3.4-4.8-10.2-11.6-15-15-18.6-12.8-0.4-12-287.2-12-260.2 0-261.6 0-272.8 4.2-21.2 7.8-38.2 30.2-40.8 53.8-0.6 6-0.8 126.2-0.2 267l1 256 4.8 10c6.4 12.6 18.6 24.8 31.2 31.2l10 4.8 109 1c96.2 0.8 109.8 1.4 115 4.2 19.4 10.8 24.4 35.2 10.4 51.2-11.4 13-8.2 12.6-125.8 12.4-82.4 0-109.4-0.8-119.2-2.8z" />
<glyph unicode="&#xe904;" glyph-name="contact" d="M444.2 902c-27.6-10-46.2-35-49.4-66.6l-1.4-13-9-1.2c-4.8-0.6-15-1.2-22.4-1.2s-20.8-1.4-29.8-3c-84-16-154-76.8-181-157.2-11.4-33.8-11.6-37.2-12.6-189.8-1.4-194.2 1.8-270.8 12.4-312.4 9.2-36.2 28.8-69.8 57.8-98.6 29.6-29.4 59.8-47.4 96.2-56.8 39.6-10.4 53.6-11.2 205-11.2 148.2 0 163.2 0.8 201 9.4 53.4 12.2 97.2 42.4 131.4 90.4 19.8 27.6 30.2 55.8 36.6 98.2 5.2 33.8 7.4 135 6.4 283-0.8 115.2-1.6 141.8-4.2 155-9.6 49.4-34 94.2-69.4 128.2-20 19-37.2 30.8-62.4 42.8-28.2 13.6-53.2 19.6-89.4 22-16 1-29.2 2-29.2 2-0.2 0-0.8 5.8-1.6 13.2-0.8 7.2-3.2 18-5.4 24-5.4 14.6-22.6 33-37.4 40.2l-11.4 5.6-60 0.4c-55.2 0.6-60.8 0.2-70.8-3.4zM562.4 838.6c3.2-3 3.6-7.2 3.6-48.4 0-37.8-0.6-46-3.2-49.8-3-4.4-3.6-4.4-50.8-4.4h-48l-3 4.8c-4.6 7-3.6 96.4 1 99.2 1.6 1 23.8 2 49.8 2 40.8 0 47.4-0.4 50.6-3.4zM395.4 741.6c3.6-29.2 17.8-50 42.2-62l13.4-6.6h60c58.8 0 60.2 0 72 4.8 14.4 5.8 32 22.4 39 37 2.6 5.6 5.6 17 6.8 26.6l2 17 22.2-1.4c26.6-1.6 42.4-5 62-13.2 49.4-20.6 86.6-63.4 101.4-116.8 4.2-15.8 4.4-18.6 5.2-170 1-206-1.6-258.2-14-296.4-9-27.6-39-64-66.4-80.4-23.8-14.2-46.4-20.4-88.2-24-31.2-2.8-250.8-2.8-282 0-54 4.6-82 15-111.4 41.6-24.6 22.2-40.4 48.4-47.4 78.4-8.4 35.4-9.2 54-9.2 247.8 0 204.8-0.6 194 13.2 227 19.4 47 59.8 83.6 108.8 99 13.2 4 35.8 7.2 58.2 7.8l10 0.2 2.2-16.4zM482.2 561c-40.4-11.4-74-46-83.4-86.2-4.2-18.2-2.8-47 3.2-64.2 11.8-33.6 41.4-62.6 75-73.2 19.8-6.2 52.4-6 71 0.4 34.4 12 62.6 39.8 74 73 6 17.2 7.4 46.4 3.2 63.2-4.2 17.2-15.2 38.8-25.4 50.6-11 12.8-30.4 26.2-47 32.6-17.4 6.8-53.2 8.6-70.6 3.8zM534.6 495.4c10.8-4.6 20.2-14.4 25.8-27 4.8-10.8 4.2-31.6-1-42.6-8.6-17.4-28.2-29.8-47.6-29.8-14 0-32.2 8.6-40.6 19.2-20 25.2-12.2 65 15.2 79 16 8.2 30.8 8.6 48.2 1.2zM483.2 286c-33-5.2-71-21-95.2-39.6-20-15.2-39.2-36.2-42.2-46-6.8-22.6 14.8-44.6 38.6-39.4 4.2 1 12.8 7.6 25.8 20.2 16 15.2 22.8 20.2 38.2 27.6 24.4 11.8 45.8 16.2 71.6 14.6 37-2.2 64.4-14.6 94-42.6 21.6-20.6 27.8-23.2 42.6-18.8 16.8 5 26.4 22.2 21.6 38.4-3 9.8-22.2 30.8-42.2 46-18.4 14-49.4 28.8-73 34.8-22.6 5.6-59.8 7.8-79.8 4.8z" />
<glyph unicode="&#xe905;" glyph-name="key1" d="M608.4 830c-38-5.2-78.8-21.8-108.4-44-74.6-55.6-109.6-148.6-90-238.6 4.8-21.4 16.8-52.2 27.6-69.8l7.8-13.2-145.4-146.8c-115-116.2-146-148.4-148-154.4-9-27.4 11.2-55.8 39.8-55.8 13.6 0 23.8 4.8 35.2 16.4l7.8 8.2 32.2-31.8c32.8-32.4 38-36.2 53-36.2 16.2 0 18.8 2 80.6 63.6 32.8 32.8 61 61.8 62.6 64.8 4.4 8.2 5.6 21.6 2.8 31.6-2 7.6-7 13.8-34.2 41l-31.8 32 53.6 53.4 53.4 53.4 8-5c60.8-38 133-47 199.4-24.8 35.2 11.8 63.4 29.4 90.8 56.8 36 36 57.8 78 65.8 127.2 20.6 127.8-65.6 248-192.8 269-23 3.8-54.2 5-69.8 3zM673.8 742.8c61.8-15.2 106.6-65.4 114.2-128.2 8-65-30.6-130.8-91.2-155.4-28.6-11.6-67-14.2-95.8-6.2-51 13.8-92.4 55.8-106.2 107-4.8 18-4.8 56.4 0 74 14.4 53 55.4 94.2 107.4 107.8 19 5.2 53.2 5.6 71.6 1z" />
<glyph unicode="&#xe906;" glyph-name="Eye" d="M482 660c-98-8.6-181-59.4-236.2-144.6-32.4-50-35.6-69-17.6-104.4 39.2-76.8 105.4-135.4 180.4-160 53.6-17.6 116.2-20.8 172.4-9.2 80.8 17 149.6 65.4 197.2 138.8 32.4 50 35.6 69 17.6 104.4-39.4 77-105.2 135.4-181.2 160.2-38.8 12.6-90.6 18.4-132.6 14.8zM571 613.2c65.8-15 118.6-49 158.8-102.6 18.4-24.6 34.2-53.4 34.2-62.6s-15.8-38-34.2-62.6c-44.4-59.2-105.2-95.4-177.4-105.6-21.6-3-80.4-1.2-99.4 3-72.4 16.2-131 57.4-171.4 120.2-13.4 20.6-21.6 38-21.6 45.4 0 8 14 34.6 29.6 56.4 43.6 60.8 101.4 97.2 174.4 110.4 20.4 3.6 87.8 2.4 107-2zM485 572.8c-48.8-10.4-88.8-51-98-99.6-3.8-19.8-3.8-31.6 0.2-50.8 10.2-50 50.2-90 99.6-99.4 19.8-3.8 31.6-3.8 50.8 0.2 50 10.2 90 50.2 99.4 99.6 3.8 19.8 3.8 31.6-0.2 50.8-14.2 69.6-82.2 113.8-151.8 99.2zM528.4 531.8c15.8-3.4 36.4-14.8 46.6-26.2 17.6-19.6 25.8-46.6 21.2-71-8.6-47.2-52.8-79-97.6-70.8-47.2 8.6-79 52.8-70.8 97.6 9 48.4 54.2 80 100.6 70.4z" />
<glyph unicode="&#xe907;" glyph-name="svg140" horiz-adv-x="980" d="M464.4 701c-43.8-9.6-80.8-46.4-92.4-92.2-18.2-70.6 25.2-143.4 94-158 65-13.8 129.4 30.8 143.2 99.2 18 89.6-58.8 169.6-144.8 151zM510.4 656c29.8-9.2 50.4-33.4 56-66 6.4-37-13-75-46.4-90.8-11.4-5.4-15.2-6.2-30-6.2s-18.6 0.8-30 6.2c-16 7.6-25.6 15.6-34 28.8-18.4 28.8-18.4 67.2 0 96 7.8 12.2 17 20.4 30 27 19 9.6 34.8 11.2 54.4 5zM746 609v-39h-78v-22h78v-78h22v78h78v22h-78v78h-22v-39zM464 403.8c-70.4-6.4-134.2-39.4-174.8-90.2-14.2-17.8-17.2-25.8-13-35.8 2.8-7 12.4-13.8 19.4-13.8 7.8 0 15.8 5.6 22.6 15.4 27 39 81.6 70.8 135.6 78.6 26.4 4 72.8 1.6 96-4.8 22.2-6.2 47.2-17.6 65.8-30 12.8-8.4 36-31 50-48.8 8-10 16.6-12.4 27-7.4 8.6 4 14.2 14.6 12.4 23-3.4 15.8-36.8 51-67.4 71.4-35.6 23.8-77.8 38.2-123.8 42.4-24.8 2.4-25 2.4-49.8 0z" />
<glyph unicode="&#xe908;" glyph-name="svg120" d="M719 725.8c-4-1.2-39.6-35.4-110.2-106l-104.4-104.4-12.8 8.2c-32.8 21.2-61.4 30.4-100.6 31.8-21 0.8-29.6 0.2-45.4-3-69.4-14.4-125.2-64.8-146.4-132.4-32.2-101.6 27.4-213.2 129.6-243 105.6-30.4 214.6 31 242.8 136.8 6.8 26 7.2 70.8 0.8 94.6-6 22.2-15.2 43-26.4 59.8l-9.8 14.8 61.4 61.6c33.8 33.8 62.2 61.4 63.4 61.4 1 0 23.2-21.2 49.2-47.2 42.6-42.6 47.8-47.2 55-48.2 15.4-2 29.8 15 24.6 29-1 3-23.2 26.8-49.4 52.8l-47.2 47.6 27.4 27.6c26.4 26.8 27.4 28 27.4 36 0 6.8-1.2 9.8-6.4 15.2-7.4 7.6-13.8 9.6-22.6 7zM417 506.2c20-4.8 32.2-10.2 49.4-21.6 19.8-13 38-33.8 48.6-55.4 12.8-25.8 15.8-39.4 15.8-68.2-0.2-21.6-0.8-25.8-6.6-42.8-21.4-63.4-74.8-102.2-140-102.2-26.4 0-42 3.6-65.2 15-38.2 18.6-67.4 53.8-78.2 95-4.8 17.8-4.8 54.6-0.2 72 20.6 78.2 99.4 126.6 176.4 108.2z" />
<glyph unicode="&#xe909;" glyph-name="svg130" d="M194.6 831.8c-36.6-3.2-60.2-12.8-78.8-32-23.6-24-29.6-45.6-31.2-113.2l-1.2-46.6h46.6v32.6c0 38.8 2.6 63.4 8 78.2 5.4 14.2 17.8 25.8 32.4 30.2 13.4 4 50 6.8 87.4 7h28.6l6.8 6.8c7.8 7.8 9 17.2 3.8 27.2-5.6 10.8-11 12-49.4 11.8-19-0.2-42.8-1-53-2zM735.8 831c-7.6-4.2-11.8-11.6-11.8-21.2 0-6.6 1.2-9.4 6.8-15l6.8-6.8h28.8c63.6-0.2 93.4-5.2 107.2-18.4 15.2-14.8 18.4-28 19.8-85l1.2-44.6h45.4v34c0 74-9.2 107-36.4 130.8-11.8 10.4-26 17.6-42.8 22-27.2 7-114.4 10-125 4.2zM485 700.8c-48.8-10.4-88.8-51-98-99.6-3.8-19.8-3.8-31.6 0.2-50.8 10.2-50 50.2-90 99.6-99.4 19.8-3.8 31.6-3.8 50.8 0.2 50 10.2 90 50.2 99.4 99.6 3.8 19.8 3.8 31.6-0.2 50.8-14.2 69.6-82.2 113.8-151.8 99.2zM531 655c32.6-8.6 55.2-32.8 61.2-65.8 6.2-32.8-11.6-68.8-41.8-84.8-49-26.2-108.4 3-118.6 58.2-7.6 40.6 20.2 82.6 61.2 92.6 13.8 3.4 24.2 3.4 38-0.2zM485.8 404c-67.4-6.4-127.2-33-169.8-76-22.4-22.6-29-32.2-29-43.2 0-6.6 1.2-9.8 5.8-14.6 11.6-12 26.6-10 38 5.4 30.2 41.2 85 72 143 80.6 26.8 3.8 76.8 1.4 100.2-4.8 50.2-13.4 93.8-41.2 119-75.4 11.6-15.8 26.4-18 38.2-5.8 8 8.4 8 19.8-0.2 32-18.6 27.2-63.6 62.8-99.2 78.2-44.4 19-99.4 28-146 23.6zM84 222c0-74 9.2-107 36.4-130.8 11.8-10.4 26-17.6 42.8-22 27.2-7 113.4-10 124.6-4.4 7.8 4.2 12.2 11.6 12.2 21.4 0 6.6-1.2 9.4-6.8 15l-6.8 6.8h-28.6c-63.8 0.2-93.6 5.2-107.4 18.4-15.2 14.8-18.4 28-19.8 85.2l-1.2 44.4h-45.4v-34zM894 223.6c0-39-2.6-63.6-8-78.4-5.4-14.2-17.8-25.8-32.4-30.2-13.4-4-50-6.8-87.2-7h-28.8l-6.8-6.8c-7.8-7.8-9-17.2-3.8-27.2 5.4-10.4 11.4-12 45.4-12 77.8 0 110.6 8.2 135.8 34.2 23.6 24 29.6 45.6 31.2 113.4l1.2 46.4h-46.6v-32.4z" />
<glyph unicode="&#xe90a;" glyph-name="Add_square_fill" d="M366 829.8c-87.2-4.6-129.2-18.6-169.8-57-47-44.2-61-84.8-66.4-190.8-2.8-54.2-1.2-276.8 2-308 7.6-70 21-105 54.2-140.6 44.8-48 85.2-62.2 192-67.6 54.2-2.8 276.8-1.2 308 2 70 7.6 105 21 140.6 54.2 48 44.8 62.2 85.2 67.6 192 2.8 54.2 1.2 276.8-2 308-7.6 70-21 105-54.2 140.6-44.2 47.2-85.6 62.2-187 67.4-44.2 2.2-239.8 2.2-285-0.2zM540 547v-71h142v-56h-142v-142h-56v142h-142v56h142v142h56v-71z" />
<glyph unicode="&#xe90b;" glyph-name="Group-17" d="M332.6 467c-6.8-2.8-12.6-11.8-12.6-19.4 0-9 6.8-16.4 21.4-23.4l14.2-6.8-13-26.4c-12.4-25.4-13-26.8-10.6-33.8 4.6-14 21.4-20 32.2-11.4 2.6 2 10.6 15.4 17.6 29.6l12.8 26 14.6-4.6c15.6-5 55.6-12.8 65.2-12.8h5.6v-34c0-38.8 1.4-44.4 13.4-49.2 8.6-3.8 18.6-1 24.6 6.6 3.6 4.8 4 8 4 39.8v34.8h6.8c11.8 0 51.4 5.8 66.8 9.6l14.6 3.8 11-22c13-25.8 18.2-31.4 29.2-31.4 6.4 0 9.4 1.4 14.8 6.8 9.2 9.2 8.8 14.4-3.2 39.2-5.6 11.2-9.8 20.8-9.4 21.2s10.6 5.6 23 11.6c23 11.4 28.4 16.6 28.4 27.6 0 7.6-7 17-14.8 19.6-6.8 2.2-8.6 1.6-33.2-9.8-53.6-24.8-90-33.2-146-33-53.4 0.2-84.8 7.4-139.4 32-15.4 7-29 12.8-30 12.8-0.8-0.2-4.4-1.4-8-3z" />
<glyph unicode="&#xe90d;" glyph-name="key" d="M639.826 831.998c-42.849 0.16-84.925-11.416-121.667-33.473-36.74-22.057-66.738-53.753-86.741-91.65s-29.249-80.547-26.732-123.325c2.516-42.778 16.698-84.050 41.008-119.34l-284.16-285.011c-5.871-5.99-9.847-13.578-11.43-21.816-1.583-8.233-0.703-16.758 2.529-24.494 3.232-7.741 8.674-14.356 15.645-19.021s15.162-7.168 23.549-7.204c5.615-0.031 11.182 1.044 16.38 3.169 5.198 2.12 9.927 5.248 13.913 9.206l12.374 12.37 55.040-55.040c3.987-3.953 8.715-7.081 13.913-9.206 5.199-2.12 10.765-3.2 16.38-3.164 5.615-0.036 11.182 1.044 16.38 3.164 5.198 2.125 9.927 5.253 13.913 9.206l105.387 105.39c3.999 3.963 7.173 8.684 9.339 13.885 2.166 5.197 3.281 10.772 3.281 16.404s-1.116 11.213-3.281 16.41c-2.166 5.202-5.341 9.917-9.339 13.885l-55.040 55.040 106.666 106.665c38.816-27.479 85.137-42.373 132.691-42.665 62.239 0 121.928 24.724 165.934 68.731 44.012 44.010 68.736 103.698 68.736 165.936s-24.724 121.926-68.736 165.935c-44.006 44.008-103.695 68.732-165.934 68.732v1.28zM639.826 448c-29.532 0-58.404 8.757-82.964 25.165-24.556 16.409-43.699 39.732-55 67.019-11.303 27.288-14.26 57.313-8.498 86.281s19.983 55.577 40.867 76.461c20.884 20.884 47.493 35.107 76.462 40.869s58.993 2.805 86.282-8.498c27.284-11.302 50.611-30.443 67.021-55.001 16.404-24.558 25.165-53.43 25.165-82.966 0-39.605-15.734-77.589-43.74-105.594s-65.987-43.737-105.595-43.737z" />
<glyph unicode="&#xe926;" glyph-name="basket" d="M642.625 840.125c3.146-2.683 6.272-5.392 9.375-8.125 1.637-1.351 3.274-2.702 4.961-4.094 33.511-28.472 55.922-69.076 65.039-111.906 0.371-1.74 0.742-3.48 1.124-5.272 3.137-16.466 3.344-32.506 3.126-49.228-0.020-2.685-0.038-5.37-0.055-8.055-0.047-6.482-0.112-12.964-0.195-19.445 1.094-0.129 2.189-0.259 3.316-0.392 44.987-5.473 87.571-15.201 122.684-45.608 1.624-1.23 3.248-2.46 4.922-3.727 28.633-24.096 41.529-64.167 45.078-100.273 2.754-39.504-3.285-78.707-8.315-117.781-1.16-9.051-2.29-18.105-3.424-27.159-1.84-14.66-3.701-29.317-5.575-43.973-2.106-16.473-4.166-32.95-6.201-49.432-1.234-9.992-2.482-19.981-3.738-29.97-0.823-6.546-1.639-13.092-2.446-19.64-7.076-57.259-16.528-108.262-62.301-148.045-22.018-16.996-48.070-27.115-74.875-33.625-2.389-0.584-2.389-0.584-4.827-1.181-27.766-6.261-55.768-7.795-84.12-7.744-3.224-0.009-6.448-0.019-9.673-0.031-8.649-0.026-17.299-0.028-25.948-0.023-7.275 0.002-14.549-0.008-21.824-0.017-17.194-0.022-34.388-0.023-51.582-0.011-17.613 0.012-35.225-0.013-52.837-0.055-15.234-0.035-30.467-0.047-45.701-0.041-9.049 0.004-18.097-0.001-27.146-0.029-73.957-0.211-153.413 1.56-209.75 56.616-31.445 32.56-39.98 77.7-45.521 121.025-0.332 2.528-0.665 5.057-1.008 7.662-0.9 6.857-1.785 13.715-2.664 20.574-0.555 4.326-1.112 8.652-1.669 12.977-1.759 13.65-3.507 27.302-5.241 40.955-1.974 15.54-3.983 31.075-6.024 46.606-1.593 12.144-3.153 24.292-4.688 36.443-0.909 7.19-1.831 14.378-2.79 21.561-4.14 31.119-6.774 61.778-6.752 93.179-0.001 1.436-0.002 2.872-0.003 4.352 0.086 41.483 10.249 79.412 38.642 110.806 1.060 1.219 2.119 2.439 3.211 3.695 32.584 35.215 86.625 48.865 132.789 52.305-0.046 2.372-0.093 4.744-0.141 7.188-0.854 61.308 13.941 117.206 54.141 164.813 1.684 2.008 3.367 4.017 5.102 6.086 70.437 81.549 197.984 95.344 283.523 28.039zM394.75 772.5c-34.886-41.534-40.75-83.032-40.75-136.5 105.6 0 211.2 0 320 0 0 57.748-6.349 106.263-47.727 148.047-31.82 30.805-73.266 46.932-117.477 46.375-46.269-2.872-82.815-24.282-114.047-57.922zM199.938 539c-28.816-36.592-23.981-85.050-18.943-128.413 1.157-9.713 2.375-19.417 3.608-29.121 0.944-7.465 1.862-14.933 2.783-22.4 1.549-12.517 3.119-25.030 4.701-37.543 1.818-14.374 3.603-28.752 5.371-43.132 1.718-13.967 3.458-27.931 5.209-41.894 0.737-5.884 1.467-11.769 2.191-17.655 6.285-69.259 6.285-69.259 41.611-126.789 42.495-31.151 96.539-34.367 147.387-34.345 2.895-0.006 5.789-0.013 8.684-0.020 7.786-0.017 15.572-0.022 23.358-0.024 4.889-0.001 9.777-0.006 14.666-0.011 17.125-0.018 34.249-0.027 51.374-0.025 15.849 0.001 31.698-0.020 47.547-0.051 13.7-0.026 27.399-0.037 41.099-0.036 8.141 0.001 16.282-0.005 24.423-0.026 96.917-1.9 96.917-1.9 180.993 40.484 5.478 6.287 9.876 12.762 14 20 1.156 1.945 1.156 1.945 2.336 3.93 15.872 30.709 16.709 72.093 20.937 105.707 0.515 4.090 1.035 8.179 1.556 12.269 1.832 14.381 3.647 28.765 5.447 43.15 1.654 13.222 3.347 26.439 5.058 39.654 1.487 11.499 2.945 23.001 4.383 34.507 0.851 6.803 1.711 13.605 2.602 20.403 12.493 81.734 12.493 81.734-12.404 157.529-25.499 31.606-66.051 41.626-104.843 46.043-16.401 1.624-32.875 1.382-49.339 1.358-3.94 0.009-7.88 0.019-11.819 0.031-10.608 0.027-21.216 0.028-31.824 0.023-8.9-0.002-17.801 0.008-26.701 0.017-21.022 0.022-42.045 0.023-63.067 0.011-21.585-0.012-43.171 0.013-64.756 0.055-18.625 0.035-37.251 0.047-55.876 0.041-11.083-0.004-22.166 0.001-33.249 0.029-10.434 0.025-20.868 0.021-31.303-0.005-3.795-0.005-7.591 0.001-11.386 0.017-50.579 0.206-109.177-4.477-145.814-43.769zM386.5 475.672c9.379-6.448 14.404-12.45 17.5-23.672 1.407-12.665-0.748-21.449-8-32-10.671-10.15-19.879-10.7-34.102-10.563-10.563 1.007-15.673 6.096-22.523 13.688-6.704 9.683-6.335 19.501-5.375 30.875 3.522 10.37 9.116 15.729 18 22 11.398 5.572 23.217 5.509 34.5-0.328zM677.5 474.625c8.438-6.004 13.176-11.1 15.633-21.352 1.638-11.361 0.828-19.14-5.133-29.273-7.044-8.128-12.793-13.376-23.609-14.672-12.468-0.159-20.797-0.202-30.391 8.672-9.662 10.968-10.7 17.611-10.563 32.031 0.985 10.447 5.974 15.517 13.313 22.469 13.338 8.892 26.599 9.367 40.75 2.125z" />
<glyph unicode="&#xe927;" d="M510.5 858.5c1.606 0.001 3.212 0.003 4.867 0.004 25.338-0.034 49.765-1.301 74.633-6.504 2.565-0.515 2.565-0.515 5.183-1.040 108.761-22.253 202.169-88.268 263.13-180.457 33.289-51.48 52.358-108.15 61.688-168.503 0.224-1.415 0.448-2.83 0.679-4.288 2.149-15.943 1.809-32.153 1.821-48.212 0.001-1.606 0.003-3.212 0.004-4.867-0.034-25.338-1.301-49.765-6.504-74.633-0.343-1.71-0.686-3.421-1.040-5.183-19.152-93.603-71.549-179.886-146.96-238.817-2.703-2.154-2.703-2.154-5.461-4.352-57.757-44.851-124.623-70.532-196.539-81.648-1.415-0.224-2.83-0.448-4.288-0.679-15.943-2.149-32.153-1.809-48.212-1.821-1.606-0.001-3.212-0.003-4.867-0.004-25.338 0.034-49.765 1.301-74.633 6.504-1.71 0.343-3.421 0.686-5.183 1.040-108.761 22.253-202.169 88.268-263.13 180.457-33.289 51.48-52.358 108.15-61.688 168.503-0.224 1.415-0.448 2.83-0.679 4.288-2.149 15.943-1.809 32.153-1.821 48.212-0.001 1.606-0.003 3.212-0.004 4.867 0.034 25.338 1.301 49.765 6.504 74.633 0.343 1.71 0.686 3.421 1.040 5.183 22.253 108.761 88.268 202.169 180.457 263.13 51.48 33.289 108.15 52.358 168.503 61.688 1.415 0.224 2.83 0.448 4.288 0.679 15.943 2.149 32.153 1.809 48.212 1.821z" />
<glyph unicode="&#xe928;" d="M510.5 858.5c1.606 0.001 3.212 0.003 4.867 0.004 25.338-0.034 49.765-1.301 74.633-6.504 2.565-0.515 2.565-0.515 5.183-1.040 108.761-22.253 202.169-88.268 263.13-180.457 33.289-51.48 52.358-108.15 61.688-168.503 0.224-1.415 0.448-2.83 0.679-4.288 2.149-15.943 1.809-32.153 1.821-48.212 0.001-1.606 0.003-3.212 0.004-4.867-0.034-25.338-1.301-49.765-6.504-74.633-0.343-1.71-0.686-3.421-1.040-5.183-19.152-93.603-71.549-179.886-146.96-238.817-2.703-2.154-2.703-2.154-5.461-4.352-57.757-44.851-124.623-70.532-196.539-81.648-1.415-0.224-2.83-0.448-4.288-0.679-15.943-2.149-32.153-1.809-48.212-1.821-1.606-0.001-3.212-0.003-4.867-0.004-25.338 0.034-49.765 1.301-74.633 6.504-1.71 0.343-3.421 0.686-5.183 1.040-108.761 22.253-202.169 88.268-263.13 180.457-33.289 51.48-52.358 108.15-61.688 168.503-0.224 1.415-0.448 2.83-0.679 4.288-2.149 15.943-1.809 32.153-1.821 48.212-0.001 1.606-0.003 3.212-0.004 4.867 0.034 25.338 1.301 49.765 6.504 74.633 0.343 1.71 0.686 3.421 1.040 5.183 22.253 108.761 88.268 202.169 180.457 263.13 51.48 33.289 108.15 52.358 168.503 61.688 1.415 0.224 2.83 0.448 4.288 0.679 15.943 2.149 32.153 1.809 48.212 1.821zM270 712c-2.7-2.301-5.408-4.593-8.125-6.875-60.93-53.496-94.263-134.674-105.875-213.125-0.389-2.591-0.779-5.182-1.18-7.852-10.85-91.289 19.246-183.876 73.859-256.359 4.307-5.398 8.749-10.613 13.32-15.789 0.907-1.038 1.814-2.076 2.748-3.146 13.326-15.182 27.144-28.569 43.252-40.854 1.867-1.475 3.733-2.949 5.656-4.469 56.106-43.505 126.983-71.488 198.344-73.531 1.502-0.052 3.005-0.103 4.553-0.156 89.886-2.744 180.854 25.164 248.572 85.781 2.96 2.79 5.918 5.581 8.875 8.375 2.7 2.301 5.408 4.593 8.125 6.875 64.463 56.599 101.507 147.178 107.548 231.342 1.795 31.779-0.191 62.446-5.673 93.783-0.402 2.35-0.402 2.35-0.812 4.747-11.212 63.208-43.3 122.803-87.188 169.253-2.301 2.7-4.593 5.408-6.875 8.125-56.641 64.512-147.235 101.496-231.45 107.557-98.722 5.529-195.189-25.194-267.675-93.682z" />
<glyph unicode="&#xe929;" d="M662 592c5.644-2.606 10.101-5.471 14.766-9.57 1.219-1.061 2.439-2.122 3.695-3.215 1.25-1.102 2.501-2.204 3.789-3.34 2.502-2.194 5.007-4.384 7.516-6.57 1.652-1.454 1.652-1.454 3.337-2.938 2.917-2.559 2.917-2.559 6.897-4.367-3.055-10.105-9.212-16.576-16.125-24.25-2.375-2.685-4.747-5.373-7.117-8.063-1.16-1.312-2.32-2.625-3.515-3.977-5.765-6.597-11.245-13.42-16.759-20.227-5.089-6.224-10.277-12.359-15.484-18.484-6.746-7.938-13.424-15.92-20-24-7.496-9.209-15.14-18.28-22.828-27.328-5.797-6.833-11.515-13.722-17.172-20.672-7.496-9.209-15.14-18.28-22.828-27.328-5.797-6.833-11.515-13.722-17.172-20.672-7.496-9.209-15.14-18.28-22.828-27.328-7.267-8.567-14.385-17.248-21.477-25.961-8.775-10.674-17.743-21.186-26.695-31.711-9.76 8.131-18.937 16.657-27.89 25.663-1.964 1.963-1.964 1.963-3.967 3.966-4.279 4.28-8.551 8.568-12.823 12.855-2.984 2.988-5.968 5.975-8.953 8.961-7.82 7.827-15.634 15.661-23.446 23.495-7.987 8.008-15.98 16.009-23.972 24.012-15.655 15.677-31.304 31.36-46.949 47.047 2.977 6.239 6.006 10.48 10.953 15.344 1.341 1.328 2.681 2.655 4.063 4.023 2.096 2.046 2.096 2.046 4.234 4.133 1.413 1.395 2.826 2.79 4.281 4.227 3.481 3.434 6.97 6.858 10.469 10.273 7.563-3.134 12.305-7.846 18.024-13.634 0.97-0.976 1.94-1.952 2.94-2.957 2.097-2.113 4.19-4.23 6.279-6.351 3.302-3.354 6.617-6.694 9.935-10.032 7.035-7.081 14.054-14.177 21.071-21.275 8.145-8.239 16.296-16.472 24.464-24.688 3.272-3.298 6.532-6.608 9.792-9.918 1.995-2.010 3.991-4.019 5.988-6.028 2.615-2.647 2.615-2.647 5.283-5.347 3.777-4.213 3.777-4.213 8.224-3.769 2.75 3.016 5.347 6.171 7.875 9.375 2.409 3.013 2.409 3.013 4.867 6.086 0.856 1.071 1.711 2.142 2.593 3.245 4.46 5.512 9.065 10.899 13.665 16.294 6.747 7.937 13.424 15.92 20 24 7.496 9.209 15.14 18.28 22.828 27.328 5.797 6.833 11.515 13.722 17.172 20.672 7.496 9.209 15.14 18.28 22.828 27.328 5.797 6.833 11.515 13.722 17.172 20.672 7.49 9.202 15.126 18.267 22.811 27.306 5.977 7.043 11.861 14.152 17.689 21.319 7.302 8.973 14.804 17.738 22.5 26.375z" />
<glyph unicode="&#xe92a;" d="M0 960c337.92 0 675.84 0 1024 0 0-337.92 0-675.84 0-1024-337.92 0-675.84 0-1024 0 0 337.92 0 675.84 0 1024z" />
<glyph unicode="&#xe92b;" d="M720 746c1.069-0.767 2.138-1.533 3.239-2.323 76.44-55.311 130.934-138.085 146.761-231.677 0.35-2.015 0.701-4.031 1.062-6.107 2.968-18.584 3.742-36.749 3.688-55.518-0.002-1.522-0.004-3.044-0.005-4.613-0.382-101.402-41.433-190.882-112.784-261.817-51.88-50.33-115.884-79.161-185.961-93.945-1.802-0.39-3.603-0.78-5.459-1.182-18.475-3.568-36.916-3.696-55.666-3.693-2.566-0.004-2.566-0.004-5.183-0.008-30.816 0.041-59.741 3.215-89.692 10.883-1.544 0.384-3.088 0.769-4.679 1.165-61.999 15.938-115.737 50.803-161.321 94.835-1.302 1.199-2.604 2.398-3.945 3.633-12.149 11.46-22.102 25.014-32.055 38.367-0.844 1.123-1.687 2.246-2.557 3.403-24.697 33.377-42.181 72.758-53.443 112.597-0.586 1.987-0.586 1.987-1.184 4.014-26.297 90.003-10.22 188.284 33.010 270.021 38.028 69.376 100.966 127.705 174.174 157.966 3.094 1.404 3.094 1.404 6.25 2.836 110.123 47.81 248.966 30.933 345.75-38.836z" />
<glyph unicode="&#xe92c;" d="M626 838c1.487-0.409 2.974-0.817 4.506-1.238 38.753-10.953 76.764-29.328 109.494-52.762 2.011-1.431 4.022-2.862 6.094-4.336 35.072-25.668 66.133-54.599 91.906-89.664 1.562-2.119 3.125-4.238 4.734-6.422 40.427-56.654 64.023-120.874 73.266-189.578 0.289-2.093 0.289-2.093 0.584-4.229 9.287-73.792-6.43-151.221-38.584-217.771-0.727-1.512-1.454-3.024-2.203-4.582-27.917-57.191-70.805-107.567-121.797-145.418-1.081-0.802-2.161-1.604-3.274-2.431-49.252-36.146-106.699-60.594-166.726-71.569-1.638-0.302-3.276-0.604-4.963-0.915-84.62-14.976-175.554-1.289-251.543 39.066-3.068 1.623-6.162 3.197-9.26 4.763-51.777 26.816-97.661 68.51-132.234 115.086-1.203 1.621-1.203 1.621-2.431 3.274-39.196 53.408-61.914 113.917-73.569 178.726-0.403 2.219-0.403 2.219-0.813 4.482-13.831 79.72 3.238 168.985 40.965 240.023 1.623 3.068 3.197 6.162 4.763 9.26 26.857 51.856 68.097 97.936 115.086 132.234 2.114 1.557 4.228 3.114 6.406 4.719 51.239 36.599 111.256 61.922 173.594 71.281 2.336 0.371 4.672 0.743 7.078 1.125 56.584 8.264 114.091 2.161 168.922-13.125zM260 710c-2.684-2.429-2.684-2.429-5.422-4.906-49.051-46.67-83.045-112.675-97.506-178.236-0.67-3.035-1.361-6.066-2.082-9.090-17.766-75.369-2.945-161.403 31.010-229.768 0.706-1.445 1.413-2.891 2.141-4.38 36.121-73.329 97.72-131.645 171.859-165.62 1.475-0.686 2.949-1.372 4.469-2.079 23.836-10.98 47.772-18.86 73.531-23.921 1.245-0.249 2.489-0.498 3.772-0.755 23.54-4.624 46.385-6.374 70.353-6.245 1.688 0.002 3.375 0.004 5.114 0.007 29.215 0.108 56.493 3.331 84.761 10.993 3.036 0.755 6.072 1.508 9.109 2.258 89.628 23.244 167.955 86.675 214.891 165.742 5.157 9.319 9.817 18.863 14.34 28.503 1.403 2.956 2.883 5.876 4.379 8.786 32.093 64.498 39.725 150.68 23.281 220.711-0.333 1.51-0.665 3.021-1.008 4.577-19.175 85.95-68.838 160.802-138.992 213.423-2.603 1.953-2.603 1.953-5.258 3.945-143.032 103.445-335.192 82.146-462.742-33.945z" />
<glyph unicode="&#xe933;" glyph-name="Home" d="M636.189 809.222c5.807-4.909 11.801-9.565 17.811-14.222 10.148-7.914 20.16-15.982 30.125-24.125 9.518-7.775 19.102-15.422 28.875-22.875 11.177-8.524 22.093-17.333 32.977-26.227 8.602-7.020 17.271-13.942 26.023-20.773 10.097-7.884 20.075-15.901 30-24 16.835-13.732 33.903-27.151 51.055-40.484 5.854-4.558 11.682-9.146 17.487-13.766 2.313-1.84 4.632-3.673 6.955-5.5 36.675-28.986 58.702-68.737 64.503-115.25 1.071-21.673-0.949-42.274-4.646-63.614-0.502-3.010-1.001-6.020-1.498-9.031-1.34-8.074-2.713-16.143-4.092-24.21-1.45-8.506-2.871-17.016-4.297-25.526-2.397-14.28-4.813-28.557-7.244-42.832-2.796-16.426-5.564-32.856-8.316-49.29-2.664-15.909-5.345-31.816-8.035-47.721-1.137-6.723-2.269-13.447-3.396-20.172-1.333-7.94-2.68-15.877-4.038-23.812-0.492-2.886-0.979-5.773-1.461-8.66-6.838-40.934-16.394-75.664-44.977-107.132-1.080-1.266-2.16-2.532-3.273-3.836-21.343-23.493-57.853-42.196-89.423-44.508-13.988-0.589-27.985-0.495-41.982-0.464-4.723-0.011-9.447-0.025-14.17-0.042-12.777-0.036-25.554-0.034-38.331-0.022-7.995 0.005-15.991 0-23.986-0.009-1.331-0.001-2.663-0.003-4.034-0.005-2.706-0.003-5.411-0.006-8.117-0.009-25.318-0.027-50.637-0.017-75.955 0.006-23.103 0.020-46.205-0.006-69.308-0.054-23.788-0.049-47.575-0.068-71.363-0.055-13.329 0.007-26.657 0.002-39.985-0.033-12.54-0.031-25.080-0.023-37.621 0.015-4.583 0.007-9.166 0.001-13.75-0.020-47.056-0.199-84.841 8.857-120.703 41.034-1.829 1.551-1.829 1.551-3.695 3.133-24.334 22.117-36.738 53.237-42.9 84.687-0.645 3.265-0.645 3.265-1.304 6.596-5.271 27.066-9.805 54.259-14.337 81.455-1.251 7.496-2.51 14.991-3.769 22.487-2.103 12.533-4.2 25.066-6.292 37.601-2.412 14.447-4.832 28.893-7.257 43.338-2.602 15.504-5.199 31.008-7.794 46.513-0.741 4.428-1.484 8.856-2.226 13.284-1.382 8.243-2.758 16.487-4.134 24.732-0.407 2.426-0.814 4.852-1.234 7.352-8.225 49.42-4.651 95.741 24.841 138.472 3.869 4.964 7.879 9.686 12.102 14.352 1.775 1.984 1.775 1.984 3.586 4.008 9.952 10.504 21.303 19.201 32.727 28.016 8.008 6.189 15.853 12.57 23.688 18.977 11.046 9.016 22.184 17.897 33.422 26.672 8.947 7.004 17.775 14.145 26.578 21.328 15.647 12.763 31.501 25.244 47.418 37.668 15.018 11.73 29.895 23.611 44.659 35.659 9.688 7.893 19.472 15.65 29.332 23.327 6.297 4.919 12.52 9.91 18.677 15.002 75.613 62.522 160.219 67.628 236.104 2.565zM493.664 336.641c-6.487-12.007-4.766-26.499-4.656-39.774 0-3.045-0.003-6.090-0.009-9.136-0.003-6.363 0.022-12.725 0.068-19.088 0.057-8.135 0.051-16.269 0.026-24.404-0.014-6.282 0.002-12.563 0.027-18.845 0.009-2.999 0.010-5.998 0.002-8.997-0.006-4.197 0.027-8.393 0.071-12.59 0.011-2.383 0.022-4.765 0.033-7.22 1.151-9.776 4.4-16.337 11.525-23.088 9.261-6.174 15.748-8.64 27.125-6.852 8.628 2.827 15.428 9.128 20.271 16.712 2.491 6.235 2.378 11.496 2.403 18.209 0.010 1.347 0.020 2.695 0.031 4.083 0.028 4.444 0.026 8.888 0.021 13.332 0.008 3.099 0.016 6.197 0.026 9.296 0.015 6.493 0.014 12.986 0.004 19.478-0.012 8.303 0.022 16.606 0.069 24.909 0.030 6.4 0.031 12.8 0.025 19.2 0.001 3.060 0.011 6.121 0.032 9.181 0.025 4.289 0.011 8.576-0.012 12.865 0.001 2.436 0.003 4.873 0.004 7.383-1.126 10.083-4.365 16.553-11.873 23.329-15.817 10.95-33.515 6.47-45.211-7.984z" />
<glyph unicode="&#xe934;" glyph-name="Search" horiz-adv-x="1066" d="M735.937 707.274c23.532-21.479 42.924-44.424 60.063-71.274 0.745-1.16 1.49-2.319 2.258-3.514 43.516-68.766 56.569-157.431 39.742-236.486-14.619-63.991-45.014-116.764-90-164-1.995-2.154-1.995-2.154-4.031-4.352-51.877-54.384-133.146-88.148-207.844-90.125-87.341-1.217-170.457 21.376-235.664 82.328-4.084 3.798-8.29 7.345-12.586 10.898-9.922 8.667-17.811 18.88-25.875 29.25-1.464 1.833-2.929 3.666-4.438 5.555-31.293 40.163-51.916 86.458-61.563 136.445-0.369 1.899-0.739 3.799-1.12 5.756-3.186 18.212-3.598 36.068-3.505 54.494 0.004 1.544 0.009 3.089 0.013 4.68 0.224 50.138 10.605 95.842 32.612 141.070 0.603 1.254 1.205 2.509 1.826 3.801 14.768 30.349 34.818 56.008 58.174 80.199 1.699 1.825 3.398 3.651 5.148 5.531 117.87 123.332 322.63 120.782 446.788 9.743zM322 660c-1.534-1.384-3.068-2.769-4.648-4.195-49.849-46.448-74.107-116.65-77.758-183.211-1.030-77.933 27.195-147.719 80.94-203.796 14.607-14.915 29.779-27.71 47.466-38.797 1.239-0.778 2.478-1.555 3.755-2.356 63.1-38.879 138.235-50.939 210.511-34.206 40.991 10.358 79.527 29.127 111.734 56.563 2.603 2.185 2.603 2.185 5.258 4.414 49.96 43.393 81.078 100.644 92.742 165.586 0.371 2.008 0.742 4.017 1.125 6.086 7.776 70.335-7.229 143.725-50.836 200.578-2.123 2.641-2.123 2.641-4.289 5.336-0.798 1.009-1.597 2.018-2.419 3.058-37.606 47.283-87.178 80.856-145.581 96.942-2.203 0.631-2.203 0.631-4.45 1.274-94.728 26.174-194.408-6.704-263.55-73.274zM796 218c10.402-6.157 18.519-13.906 27.031-22.43 1.394-1.386 2.788-2.771 4.224-4.199 2.93-2.918 5.854-5.842 8.774-8.77 4.467-4.473 8.96-8.919 13.455-13.364 2.851-2.846 5.7-5.694 8.547-8.543 1.342-1.323 2.683-2.646 4.066-4.010 8.264-8.347 13.129-14.619 14.653-26.561-1.153-9.413-5.919-14.979-12.125-21.875-7.668-3.73-14.32-3.992-22.625-2.25-3.916 2.687-3.916 2.687-7.685 6.194-1.381 1.273-2.762 2.545-4.184 3.856-1.363 1.303-2.727 2.607-4.131 3.949-1.219 1.157-2.439 2.315-3.695 3.507-3.65 3.513-7.258 7.064-10.852 10.634-1.3 1.288-2.599 2.576-3.938 3.904-2.715 2.696-5.427 5.395-8.137 8.097-4.146 4.126-8.312 8.23-12.479 12.335-2.65 2.637-5.298 5.275-7.945 7.914-1.242 1.217-2.483 2.434-3.762 3.688-6.177 6.209-10.865 11.228-13.191 19.922 0.135 9.837 2.838 16.612 9.125 24.125 8.482 4.781 15.342 6.179 24.875 3.875z" />
<glyph unicode="&#xe938;" glyph-name="menuBar" horiz-adv-x="1170" d="M66.018 28.509c1.802 0.006 3.604 0.013 5.461 0.019 6.058 0.017 12.116 0.005 18.175-0.007 4.379 0.006 8.759 0.014 13.138 0.023 12.051 0.021 24.101 0.016 36.151 0.008 12.99-0.005 25.98 0.013 38.97 0.028 25.455 0.026 50.91 0.029 76.365 0.024 20.685-0.004 41.37 0 62.055 0.008 2.971 0.001 5.942 0.002 8.913 0.004 4.477 0.002 8.954 0.004 13.43 0.005 41.628 0.017 83.256 0.026 124.884 0.017 2.354 0 2.354 0 4.756-0.001 7.956-0.002 15.911-0.003 23.867-0.005 2.37-0.001 2.37-0.001 4.788-0.001 3.195-0.001 6.39-0.001 9.586-0.002 49.72-0.011 99.441 0.005 149.161 0.042 55.851 0.041 111.702 0.063 167.553 0.055 5.954-0.001 11.908-0.002 17.862-0.002 1.466 0 2.932 0 4.443-0.001 22.141-0.002 44.282 0.011 66.422 0.032 25.178 0.024 50.356 0.027 75.533 0.002 12.85-0.012 25.701-0.014 38.551 0.010 11.759 0.022 23.518 0.016 35.278-0.013 4.258-0.005 8.517 0 12.775 0.015 5.782 0.020 11.563 0.003 17.345-0.023 1.658 0.015 3.317 0.029 5.025 0.044 12.677-0.118 24.092-2.197 34.050-10.669 1.096-1.361 2.191-2.722 3.32-4.125 1.698-2.042 1.698-2.042 3.43-4.125 6.297-9.054 5.605-19.29 4.695-29.875-4.212-11.749-11.14-19.458-22.198-25.242-8.691-3.554-16.84-3.594-26.128-3.519-1.811-0.009-3.622-0.019-5.488-0.028-6.077-0.024-12.154-0.005-18.231 0.014-4.398-0.008-8.795-0.019-13.193-0.033-12.092-0.029-24.183-0.020-36.275-0.006-11.699 0.008-23.398-0.011-35.097-0.030-25.406-0.039-50.812-0.044-76.218-0.034-22.234 0.009-44.469 0.008-66.703-0.004-2.982-0.002-5.964-0.003-8.946-0.005-4.493-0.002-8.987-0.005-13.48-0.007-41.777-0.021-83.554-0.031-125.332-0.015-2.363 0.001-2.363 0.001-4.773 0.002-12.79 0.005-25.581 0.010-38.371 0.015-49.895 0.020-99.79 0.003-149.686-0.043-56.052-0.052-112.105-0.078-168.157-0.064-5.975 0.001-11.951 0.003-17.926 0.004-2.207 0.001-2.207 0.001-4.459 0.001-22.219 0.005-44.439-0.011-66.658-0.038-25.266-0.030-50.531-0.032-75.797 0.004-12.895 0.017-25.79 0.021-38.685-0.009-11.8-0.028-23.599-0.018-35.399 0.020-4.273 0.008-8.546 0.002-12.819-0.019-5.802-0.026-11.602-0.003-17.405 0.032-1.664-0.019-3.328-0.039-5.043-0.058-12.516 0.157-23.218 3.229-32.594 11.883-8.413 9.54-11.952 18.157-11.566 30.942 1.537 10.415 6.586 18.995 14.375 25.984 11.851 8.059 22.401 8.832 36.268 8.759zM63.823 462.52c1.805 0.008 3.611 0.015 5.471 0.023 6.081 0.021 12.162 0.013 18.244 0.005 4.391 0.009 8.783 0.020 13.174 0.032 12.093 0.028 24.186 0.032 36.279 0.031 13.032 0.003 26.065 0.029 39.097 0.052 27.024 0.044 54.048 0.061 81.073 0.070 1.469 0.001 2.938 0.001 4.452 0.002 1.472 0.001 2.944 0.001 4.461 0.002 16.308 0.006 32.616 0.019 48.924 0.032 49.252 0.039 98.504 0.072 147.756 0.078 2.363 0 2.363 0 4.774 0.001 6.385 0.001 12.77 0.001 19.155 0.002 4.806 0.001 9.612 0.001 14.418 0.002 1.588 0 3.176 0 4.812 0.001 49.895 0.006 99.789 0.050 149.684 0.123 56.047 0.081 112.093 0.129 168.14 0.129 5.977 0 11.953 0.001 17.93 0.001 2.207 0 2.207 0 4.459 0 23.682 0.002 47.364 0.037 71.046 0.083 23.804 0.046 47.607 0.054 71.411 0.025 12.896-0.014 25.791-0.013 38.686 0.033 11.805 0.041 23.61 0.036 35.415-0.006 4.271-0.007 8.541 0.003 12.812 0.031 42.389 0.265 42.389 0.265 56.505-11.272 9.085-9.838 10.62-20.093 10.414-33.008-1.011-12.191-7.609-18.784-16.391-26.398-10.813-6.971-21.635-7.168-34.041-7.103-1.802-0.006-3.604-0.013-5.461-0.019-6.058-0.017-12.116-0.005-18.175 0.007-4.379-0.006-8.759-0.014-13.138-0.023-12.051-0.021-24.101-0.016-36.151-0.008-12.99 0.005-25.98-0.013-38.97-0.028-25.455-0.026-50.91-0.029-76.365-0.024-20.685 0.004-41.37 0-62.055-0.008-2.971-0.001-5.942-0.002-8.913-0.004-4.477-0.002-8.954-0.004-13.43-0.005-41.628-0.017-83.256-0.026-124.884-0.017-2.354 0-2.354 0-4.756 0.001-7.956 0.002-15.911 0.003-23.867 0.005-2.37 0.001-2.37 0.001-4.788 0.001-3.195 0.001-6.39 0.001-9.586 0.002-49.72 0.011-99.441-0.005-149.161-0.042-55.851-0.041-111.702-0.063-167.553-0.055-5.954 0.001-11.908 0.002-17.862 0.002-1.466 0-2.932 0-4.443 0.001-22.141 0.002-44.282-0.011-66.422-0.032-25.178-0.024-50.356-0.027-75.533-0.002-12.85 0.012-25.701 0.014-38.551-0.010-11.759-0.022-23.518-0.016-35.278 0.013-4.258 0.005-8.517 0-12.775-0.015-5.782-0.020-11.563-0.003-17.345 0.023-1.658-0.015-3.317-0.029-5.025-0.044-12.303 0.115-23.706 2.077-33.542 10.091-8.245 10.533-12.999 18.534-12.578 32.469 1.547 10.479 6.602 19.025 14.5 25.984 11.482 7.967 20.356 8.832 33.948 8.77zM62.142 944.761c1.816 0.009 3.631 0.019 5.502 0.028 6.104 0.024 12.208 0.005 18.312-0.014 4.412 0.008 8.825 0.019 13.237 0.033 12.142 0.029 24.283 0.020 36.425 0.006 11.745-0.008 23.489 0.011 35.233 0.030 25.508 0.039 51.016 0.044 76.523 0.034 22.325-0.009 44.649-0.008 66.974 0.004 2.993 0.002 5.987 0.003 8.98 0.005 4.511 0.002 9.021 0.005 13.532 0.007 41.942 0.021 83.884 0.031 125.827 0.015 1.581-0.001 3.163-0.001 4.792-0.002 12.843-0.005 25.686-0.010 38.529-0.015 50.096-0.020 100.193-0.003 150.289 0.043 56.273 0.052 112.546 0.078 168.819 0.064 5.999-0.001 11.998-0.003 17.997-0.004 2.216-0.001 2.216-0.001 4.476-0.001 22.308-0.005 44.617 0.011 66.925 0.038 25.368 0.030 50.736 0.032 76.104-0.004 12.948-0.017 25.895-0.021 38.843 0.009 11.848 0.028 23.696 0.018 35.544-0.020 4.291-0.008 8.581-0.002 12.872 0.019 5.826 0.026 11.65 0.003 17.476-0.032 1.671 0.019 3.342 0.039 5.064 0.058 12.876-0.16 23.92-3.47 33.261-12.692 0.724-1.152 1.449-2.305 2.195-3.492 0.761-1.158 1.521-2.315 2.305-3.508 4.785-8.851 4.947-17.575 3.82-27.367-3.69-11.83-9.985-18.968-20-26-7.842-2.614-15.298-2.283-23.472-2.268-2.724-0.007-2.724-0.007-5.503-0.014-6.142-0.013-12.283-0.012-18.425-0.012-4.425-0.007-8.85-0.014-13.276-0.022-12.205-0.020-24.409-0.027-36.614-0.033-11.797-0.007-23.594-0.023-35.39-0.039-31.613-0.042-63.227-0.063-94.84-0.080-14.951-0.008-29.902-0.019-44.853-0.029-51.164-0.036-102.327-0.066-153.491-0.081-3.213-0.001-6.425-0.002-9.638-0.003-1.593 0-3.186-0.001-4.828-0.001-8.072-0.002-16.144-0.005-24.216-0.007-1.602 0-3.204-0.001-4.854-0.001-51.953-0.016-103.906-0.063-155.859-0.128-54.909-0.069-109.817-0.108-164.726-0.115-6.025-0.001-12.051-0.002-18.076-0.003-2.226 0-2.226 0-4.496-0.001-23.896-0.005-47.791-0.036-71.686-0.077-24.010-0.040-48.020-0.051-72.030-0.032-13.012 0.009-26.024 0.005-39.036-0.034-11.905-0.035-23.81-0.033-35.715-0.002-4.314 0.005-8.627-0.004-12.941-0.028-5.852-0.030-11.703-0.011-17.555 0.020-1.685-0.020-3.369-0.041-5.105-0.062-11.395 0.134-17.97 2.547-27.374 9.052-8.222 8.667-11.666 15.856-12.625 27.75 0.334 11.092 4.122 19.274 11.25 27.75 11.591 9.704 20.944 11.377 35.517 11.261z" />
<glyph unicode="&#xe93d;" glyph-name="Profile" d="M584 876c1.685-0.343 3.37-0.686 5.106-1.040 68.122-14.025 132.834-42.992 186.894-86.96 1.197-0.969 2.394-1.937 3.628-2.936 28.031-22.874 52.853-47.975 74.372-77.064 0.855-1.134 1.711-2.267 2.592-3.436 13.535-17.962 24.881-36.706 35.408-56.564 0.696-1.294 1.392-2.588 2.109-3.921 53.158-99.346 61.377-219.653 29.719-327.023-21.711-69.935-59.404-130.411-109.828-183.056-2.127-2.251-2.127-2.251-4.297-4.547-56.894-58.751-136.031-97.443-215.078-114.953-2.666-0.596-2.666-0.596-5.386-1.204-28.83-6.102-57.118-8.059-86.489-7.921-1.665 0.004-3.33 0.009-5.046 0.013-26.304 0.109-51.873 1.267-77.704 6.612-2.992 0.612-2.992 0.612-6.045 1.236-79.061 16.636-151.938 52.316-210.861 107.975-4.139 3.891-8.331 7.563-12.719 11.164-7.649 6.491-13.94 13.955-20.375 21.625-1.503 1.727-3.006 3.455-4.555 5.234-68.066 79.356-103.871 179.149-103.945 283.266-0.001 1.693-0.003 3.385-0.004 5.129 0.034 26.545 1.184 52.288 6.504 78.371 0.515 2.588 0.515 2.588 1.040 5.228 15.78 77.15 51.346 148.312 104.819 206.257 3.709 4.045 7.241 8.185 10.766 12.391 16.781 19.173 36.827 35.198 57.375 50.125 3.175 2.332 3.175 2.332 6.414 4.711 50.436 35.878 109.082 59.353 169.586 71.289 1.508 0.325 3.016 0.649 4.57 0.983 50.548 10.648 111.014 9.953 161.43-0.983zM350 800c-1.333-0.561-2.665-1.121-4.038-1.699-45.453-19.42-84.433-48.321-119.962-82.301-1.356-1.274-2.712-2.547-4.109-3.859-67.159-64.683-105.74-163.017-108.266-255.289-1.505-93.009 26.731-179.714 84.375-252.852 1.057-1.366 2.114-2.733 3.203-4.141 2.156-2.711 4.456-5.306 6.797-7.859 1.32 0 2.64 0 4 0 2.084 3.427 4.013 6.948 5.875 10.5 8.187 14.477 18.557 25.656 30.125 37.5 1.191 1.315 2.382 2.63 3.609 3.984 49.583 53.53 140.499 78.783 211.015 82.242 4.853 0.132 9.702 0.206 14.556 0.25 1.788 0.020 3.575 0.039 5.417 0.059 39.116 0.34 77.077 0.256 115.403-8.536 1.898-0.429 3.795-0.857 5.75-1.299 68.529-15.992 138.224-48.416 178.25-108.701 3.558-5.897 6.907-11.846 10-18 45.416 44.134 72.834 106.804 87.625 167.5 0.39 1.579 0.779 3.159 1.181 4.786 6.179 26.801 7.965 53.678 7.819 81.089-0.004 1.478-0.009 2.955-0.013 4.478-0.114 24.451-1.459 48.191-6.612 72.147-0.387 1.814-0.773 3.627-1.172 5.496-21.801 98.575-81.773 185.082-165.578 241.254-31.693 20.204-65.184 36.622-101.25 47.25-1.599 0.476-3.198 0.952-4.845 1.442-85.099 24.723-177.621 19.285-259.155-15.442zM276.125 196c-11.461-13.378-24.125-29.798-24.125-48 2.433-2.999 2.433-2.999 5.945-5.398 1.289-0.965 2.578-1.93 3.906-2.924 1.41-1.007 2.82-2.015 4.273-3.053 1.449-1.056 2.898-2.113 4.391-3.201 13.982-10.049 28.4-19.129 43.484-27.424 1.853-1.019 1.853-1.019 3.744-2.060 42.992-23.277 89.669-38.255 138.256-43.94 1.792-0.222 3.584-0.443 5.43-0.672 103.196-10.71 202.548 21.766 283.883 84.68 4.796 3.558 4.796 3.558 6.688 7.992-8.023 20.081-18.271 37.002-34 52-1.395 1.387-2.79 2.774-4.227 4.203-61.155 57.913-154.134 69.709-234.433 68.069-71.956-2.671-152.685-26.458-203.216-80.272zM599.875 676.125c35.477-27.416 55.82-64.012 63.5-108 4.177-43.279-6.335-86.95-33.57-121.438-4.445-5.080-9.036-9.911-13.805-14.688-1.521-1.544-3.042-3.089-4.609-4.68-33.867-32.479-75.306-42.462-121.055-41.859-41.758 1.291-82.022 22.26-110.664 52.305-33.308 38.41-42.515 82.803-39.672 132.234 4.038 36.565 25.818 76.454 54 100 62.542 48.247 141.036 51.368 205.875 6.125zM411.664 610.531c-16.673-24.601-23.116-53.365-18.742-82.719 6.794-30.371 23.216-54.304 48.188-72.75 25.39-15.899 55.388-21.239 84.641-14.938 31.845 8.932 55.51 26.042 72.344 54.617 14.093 25.388 16.543 55.264 8.656 83.133-10.69 29.482-28.153 52.114-56.133 67.25-50.729 22.041-104.555 8.791-138.953-34.594z" />
<glyph unicode="&#xe93e;" horiz-adv-x="980" d="M0 960c323.4 0 646.8 0 980 0 0-337.92 0-675.84 0-1024-323.4 0-646.8 0-980 0 0 337.92 0 675.84 0 1024z" />
<glyph unicode="&#xe93f;" horiz-adv-x="980" d="M569.383 674.164c25.838-23.302 40.445-53.589 42.903-88.185 1.693-35.422-7.598-68.058-30.473-95.8-20.016-21.944-47.306-40.285-77.741-42.46-35.345-1.556-65.453 5.246-92.697 29.156-3.155 3.011-6.283 6.050-9.375 9.125-1.106 1.036-2.212 2.073-3.352 3.141-23.862 24.569-31.648 59.882-31.344 92.76 0.35 13.535 1.282 25.547 6.695 38.1 0.516 1.21 1.033 2.42 1.564 3.667 14.739 33.796 37.504 59.169 71.865 73.958 42.397 15.325 87.949 5.132 121.953-23.461z" />
<glyph unicode="&#xe940;" horiz-adv-x="980" d="M570 394c2.052-0.572 4.104-1.145 6.219-1.734 48.154-14.707 91.751-46.049 121.781-86.266 1.013-1.338 2.026-2.676 3.070-4.055 5.012-7.492 5.914-13.585 4.305-22.219-2.766-7.496-8.38-12.229-15.375-15.727-10.219-0.771-15.704 0.024-24 6-3.773 4.695-3.773 4.695-7.375 10.125-30.852 43.818-78.712 66.678-130.273 76.164-12.56 1.97-24.903 2.403-37.602 2.336-2.265-0.011-4.529-0.023-6.862-0.034-31.474-0.451-59.067-5.99-87.888-18.591-2.14-0.928-4.28-1.856-6.484-2.813-30.777-14.389-56.937-38.231-76.711-65.703-2.805-3.484-2.805-3.484-8.805-7.484-13.871-1.342-13.871-1.342-21.75 3.625-5.959 6.135-8.133 9.263-9.039 17.898 0.255 9.066 3.945 15.085 9.414 22.102 0.904 1.202 1.809 2.404 2.741 3.643 41.010 53.262 103.354 83.808 169.077 93.379 39.178 4.771 77.759 0.028 115.557-10.647z" />
<glyph unicode="&#xe941;" horiz-adv-x="980" d="M528.508 649.43c19.603-13.772 34.382-32.762 38.852-56.492 3.407-26.262-2.133-49.959-17.148-71.922-13.55-16.139-32.809-27.136-53.781-29.695-19.877-0.699-36.445 5.124-52.43 16.68-2.063 1.485-4.125 2.97-6.25 4.5-17.346 16.591-25.65 37.748-26.696 61.62-0.318 24.21 7.078 43.54 22.946 61.88 26.735 25.513 61.675 32.15 94.508 13.43z" />
<glyph unicode="&#xe942;" horiz-adv-x="980" d="M778.835 826.322c1.886 0.019 3.771 0.038 5.714 0.058 2.064 0.008 4.128 0.017 6.255 0.026 2.131 0.011 4.263 0.023 6.459 0.035 4.545 0.019 9.090 0.032 13.634 0.040 6.83 0.019 13.659 0.081 20.489 0.145 44.575 0.218 85.714-2.103 119.965-33.719 26.402-27.562 28.818-71.071 29.125-107.25 0.016-1.852 0.032-3.704 0.049-5.612 0.027-3.879 0.049-7.758 0.065-11.637 0.023-3.953 0.064-7.905 0.123-11.857 0.085-5.757 0.118-11.511 0.138-17.269 0.035-1.756 0.070-3.513 0.106-5.323-0.040-11.272-1.657-17.27-8.958-25.959-6.831-5.182-13.667-5.006-22-4-6.902 4.087-11.553 9.33-16 16-0.53 4.012-0.53 4.012-0.574 8.65-0.027 1.745-0.054 3.489-0.081 5.287-0.016 2.831-0.016 2.831-0.032 5.719-0.029 1.962-0.058 3.925-0.089 5.947-0.093 6.299-0.161 12.598-0.224 18.897 2.104 51.111 2.104 51.111-15 97.5-21.875 20.533-57.897 18.034-85.813 18.281-1.723 0.019-3.447 0.039-5.222 0.058-10.709 0.12-10.709 0.12-21.419 0.161-5.288 0.007-10.572 0.076-15.859 0.155-1.6-0.014-3.2-0.028-4.849-0.043-11.601 0.252-16.733 3.045-24.839 11.387-3.47 6.94-3.216 14.43-2 22 4.875 6 4.875 6 10 10 3.172 3.172 6.435 2.286 10.835 2.322z" />
<glyph unicode="&#xe943;" horiz-adv-x="980" d="M964 248c6.538-4.233 12.483-8.966 16-16 0.224-5.704 0.328-11.357 0.336-17.063 0.010-2.594 0.010-2.594 0.020-5.24 0.010-3.685 0.015-7.371 0.014-11.056 0.004-5.508 0.040-11.016 0.079-16.524 0.145-44.773-0.951-92.751-32.574-127.617-10.522-10.026-22.413-15.369-35.875-20.5-1.691-0.657-3.383-1.315-5.125-1.992-26.328-9.050-57.109-6.494-84.599-6.598-4.3-0.023-8.599-0.065-12.898-0.123-6.275-0.085-12.548-0.118-18.823-0.138-1.917-0.035-3.833-0.070-5.808-0.106-8.641 0.028-13.416 0.136-20.906 4.761-6.475 7.076-6.508 12.392-6.418 21.681 0.855 6.674 3.767 9.98 8.578 14.516 6.36 4.24 8.001 4.51 15.296 4.574 1.884 0.027 3.768 0.054 5.709 0.081 2.037 0.011 4.075 0.021 6.174 0.032 2.11 0.029 4.22 0.058 6.393 0.089 6.767 0.093 13.534 0.161 20.302 0.224 8.852 0.083 17.703 0.191 26.555 0.313 2.001 0.011 4.002 0.021 6.063 0.032 23.826 0.329 47.592 2.572 66.257 18.781 11.582 20.937 13.504 42.449 13.602 65.82 0.046 4.275 0.095 8.549 0.145 12.824 0.070 6.693 0.129 13.385 0.156 20.079 0.031 6.492 0.111 12.981 0.2 19.472-0.004 1.994-0.008 3.988-0.012 6.043 0.25 14.242 2.813 21.071 12.785 31.387 6.711 3.451 10.92 3.387 18.375 2.25z" />
<glyph unicode="&#xe944;" horiz-adv-x="980" d="M249.312 826.59c3.995 0.023 7.99 0.065 11.984 0.123 5.844 0.085 11.687 0.118 17.532 0.138 1.779 0.035 3.558 0.070 5.391 0.106 8.327-0.029 12.626-0.227 19.815-4.777 5.694-6.003 7.643-9.71 8.716-17.931-0.953-7.94-3.811-12.041-8.75-18.25-6.245-4.164-7.67-4.503-14.771-4.542-1.772-0.020-3.544-0.041-5.369-0.062-1.919-0.004-3.837-0.009-5.814-0.013-4.109-0.050-8.219-0.101-12.328-0.152-6.441-0.057-12.881-0.105-19.322-0.143-48.727 1.087-48.727 1.087-92.396-17.087-1.32 0-2.64 0-4 0-0.536-1.361-1.073-2.722-1.625-4.125-2.375-5.875-2.375-5.875-5.375-11.75-11.305-26.968-7.709-60.854-7.762-89.451-0.019-6.121-0.086-12.241-0.16-18.361 0.010-1.863 0.020-3.725 0.031-5.644-0.174-11.494-1.609-17.829-9.109-26.668-6.831-5.182-13.667-5.006-22-4-5.945 3.57-10.852 7.704-14 14-0.211 3.149-0.297 6.306-0.322 9.461-0.019 1.972-0.038 3.944-0.058 5.976-0.008 2.148-0.017 4.295-0.026 6.508-0.011 2.222-0.023 4.444-0.035 6.734-0.019 4.73-0.032 9.459-0.040 14.189-0.019 7.124-0.081 14.247-0.145 21.371-0.201 42.242 1.128 83.703 32.32 115.973 35.042 30.845 83.89 28.202 127.616 28.379z" />
<glyph unicode="&#xe945;" horiz-adv-x="980" d="M122 246c6.551-5.032 11.245-10.678 13.095-18.819 0.416-5.623 0.462-11.137 0.374-16.775 0.018-2.059 0.036-4.118 0.054-6.239 0.048-6.557 0.016-13.11-0.023-19.667 0.003-6.527 0.023-13.054 0.063-19.582 0.020-4.049 0.017-8.099-0.013-12.148 0.011-21.083 2.598-44.151 13.95-62.395 21.299-20.708 53.314-18.382 80.992-18.797 1.813-0.029 3.626-0.057 5.495-0.087 7.549-0.115 15.098-0.225 22.647-0.294 5.578-0.055 11.155-0.147 16.733-0.244 2.541-0.010 2.541-0.010 5.133-0.020 9.957-0.207 16.851-1.473 25.5-6.933 5.592-6.133 6.473-10.948 6.125-19-0.469-6.829-2.136-9.013-6.795-14.207-9.078-7.273-19.277-6.189-30.423-6.051-2.25-0.005-4.501-0.010-6.819-0.015-4.768 0.002-9.535 0.029-14.303 0.079-7.177 0.068-14.349 0.042-21.526 0.002-39.596 0.023-81.989 2.507-113.133 30.316-24.639 27.076-29.723 64.739-29.797 99.813-0.020 3.372-0.020 3.372-0.040 6.812-0.020 4.699-0.030 9.398-0.029 14.096-0.009 7.193-0.082 14.384-0.157 21.576-0.012 4.589-0.020 9.177-0.023 13.766-0.029 2.142-0.057 4.283-0.087 6.49 0.091 14.799 0.091 14.799 4.778 22.576 9.061 8.022 16.581 9.221 28.231 5.746z" />
<glyph unicode="&#xe946;" horiz-adv-x="980" d="M746 648c7.26 0 14.52 0 22 0 0-25.74 0-51.48 0-78 25.74 0 51.48 0 78 0 0-7.26 0-14.52 0-22-25.74 0-51.48 0-78 0 0-25.74 0-51.48 0-78-7.26 0-14.52 0-22 0 0 25.74 0 51.48 0 78-25.74 0-51.48 0-78 0 0 7.26 0 14.52 0 22 25.74 0 51.48 0 78 0 0 25.74 0 51.48 0 78z" />
<glyph unicode="&#xe94f;" glyph-name="Wishlist" horiz-adv-x="1058" d="M507.461 775.93c6.525-5.649 12.617-11.655 18.539-17.93 1.939 1.65 3.878 3.3 5.875 5 1.305 1.106 2.609 2.212 3.953 3.352 2.677 2.341 5.299 4.749 7.844 7.234 47.114 45.158 115.393 64.092 179.117 62.914 71.185-2.446 134.032-34.825 182.945-85.633 23.989-25.763 41.842-58.017 53.141-91.242 0.445-1.301 0.891-2.603 1.35-3.943 8.559-27.128 10.87-54.041 10.65-82.307-0.005-1.646-0.011-3.292-0.016-4.987-0.486-98.104-33.135-196.859-90.859-276.388-0.938-1.3-1.876-2.601-2.843-3.94-35.67-49.171-77.124-94.686-125.157-132.060-1.239-0.974-2.478-1.947-3.755-2.95-62.445-48.989-154.652-118.946-238.003-110.464-57.925 9.453-114.607 46.846-162.242 79.414-1.938 1.317-1.938 1.317-3.916 2.661-25.937 17.727-50.303 37.604-73.334 58.956-4.176 3.853-8.427 7.571-12.75 11.258-15.838 13.789-30.578 28.986-44 45.125-0.901 1.074-1.803 2.148-2.731 3.254-34.176 40.824-62.815 84.4-85.269 132.746-0.993 2.131-0.993 2.131-2.006 4.305-14.95 32.561-25.069 66.707-32.619 101.695-0.295 1.359-0.589 2.717-0.893 4.117-5.359 26.557-7.185 52.842-7.114 79.864 0.006 5.015-0.041 10.027-0.091 15.042-0.107 27.030 3.045 52.872 11.848 78.602 0.497 1.465 0.993 2.929 1.505 4.438 12.765 35.797 33.4 66.439 59.37 93.937 2.208 2.436 2.208 2.436 4.461 4.922 91.092 96.738 247.932 93.831 347 13.008zM196 726c-1.743-1.658-3.486-3.315-5.281-5.023-39.293-40.343-57.941-95.306-57.422-150.951 2.946-107.018 44.348-215.132 118.383-293.424 3.672-3.911 7.174-7.896 10.672-11.961 20.472-23.478 42.972-45.626 67.648-64.641 2.248-1.842 4.49-3.691 6.727-5.547 18.868-15.566 38.644-29.328 59.273-42.453 1.869-1.194 1.869-1.194 3.776-2.411 65.77-44.055 65.77-44.055 140.224-55.589 11.12 3.084 21.478 7.291 32 12 1.74 0.772 3.479 1.545 5.271 2.341 40.025 17.984 77.157 40.025 112.729 65.659 1.362 0.98 2.723 1.96 4.126 2.97 15.61 11.307 30.585 22.901 44.624 36.132 4.184 3.904 8.425 7.657 12.758 11.391 22.711 19.795 44.222 41.538 62.492 65.508 2.021 2.544 4.044 5.085 6.070 7.625 15.689 19.847 29.423 40.39 41.93 62.375 0.869 1.521 1.738 3.042 2.633 4.608 43.651 77.286 71.275 179.886 48.324 267.815-8.128 29.146-21.622 54.276-40.957 77.577-2.057 2.548-2.057 2.548-4.156 5.148-32.831 38.729-79.847 62.149-129.844 68.852-8.176 0.563-16.306 0.669-24.5 0.625-3.293-0.017-3.293-0.017-6.652-0.034-55.155-0.822-104.525-24.916-143.848-62.966-6.082-6.303-11.247-13.049-16.156-20.297-4.378-5.123-8.578-7.016-15.211-7.93-1.488-0.008-2.975-0.015-4.508-0.023-1.482-0.034-2.965-0.067-4.492-0.102-10.865 1.704-16.518 8.442-22.883 16.852-31.631 39.551-76.687 64.041-126.148 73.039-66.347 7.296-128.978-10.794-177.602-57.164z" />
</font>
</defs>
</svg>
